<svg xmlns="http://www.w3.org/2000/svg" xmlns:xlink="http://www.w3.org/1999/xlink" width="173" zoomAndPan="magnify" viewBox="0 0 129.75 46.499999" height="62" preserveAspectRatio="xMidYMid meet" version="1.0"><defs><g/><clipPath id="6aa2199b58"><path d="M 24.507812 12.8125 L 38 12.8125 L 38 35.695312 L 24.507812 35.695312 Z M 24.507812 12.8125 " clip-rule="nonzero"/></clipPath><clipPath id="0b59f6033b"><path d="M 33 12.8125 L 50.480469 12.8125 L 50.480469 28 L 33 28 Z M 33 12.8125 " clip-rule="nonzero"/></clipPath><clipPath id="4d94dbfe09"><path d="M 32 25 L 47 25 L 47 35.695312 L 32 35.695312 Z M 32 25 " clip-rule="nonzero"/></clipPath><clipPath id="eb973dfe98"><path d="M 15.507812 9 L 43.335938 9 L 43.335938 40.378906 L 15.507812 40.378906 Z M 15.507812 9 " clip-rule="nonzero"/></clipPath><clipPath id="c05ea5921f"><path d="M 28 5.75 L 37 5.75 L 37 15 L 28 15 Z M 28 5.75 " clip-rule="nonzero"/></clipPath><clipPath id="514c6b7536"><path d="M 85.460938 21.910156 L 96.246094 21.910156 L 96.246094 27.304688 L 85.460938 27.304688 Z M 85.460938 21.910156 " clip-rule="nonzero"/></clipPath><clipPath id="f6dcc575f2"><path d="M 93.550781 21.910156 L 85.460938 21.910156 L 85.460938 27.304688 L 93.550781 27.304688 L 96.246094 24.609375 Z M 93.550781 21.910156 " clip-rule="nonzero"/></clipPath><clipPath id="111c6c6c23"><path d="M 50.957031 21.910156 L 61.742188 21.910156 L 61.742188 27.304688 L 50.957031 27.304688 Z M 50.957031 21.910156 " clip-rule="nonzero"/></clipPath><clipPath id="7d86ed95f4"><path d="M 53.652344 27.304688 L 61.742188 27.304688 L 61.742188 21.910156 L 53.652344 21.910156 L 50.957031 24.605469 Z M 53.652344 27.304688 " clip-rule="nonzero"/></clipPath><clipPath id="7f759122eb"><path d="M 57 22.050781 L 59 22.050781 L 59 23 L 57 23 Z M 57 22.050781 " clip-rule="nonzero"/></clipPath><clipPath id="5b64c2974b"><path d="M 55 22.050781 L 59 22.050781 L 59 26 L 55 26 Z M 55 22.050781 " clip-rule="nonzero"/></clipPath><clipPath id="bdeb7c3e91"><path d="M 54.867188 24 L 59.320312 24 L 59.320312 27.242188 L 54.867188 27.242188 Z M 54.867188 24 " clip-rule="nonzero"/></clipPath><clipPath id="d171846d1f"><path d="M 90 24 L 92.71875 24 L 92.71875 27 L 90 27 Z M 90 24 " clip-rule="nonzero"/></clipPath><clipPath id="298817b6bb"><path d="M 89 22.050781 L 91 22.050781 L 91 23 L 89 23 Z M 89 22.050781 " clip-rule="nonzero"/></clipPath><clipPath id="399b45b9eb"><path d="M 89 22.050781 L 92.71875 22.050781 L 92.71875 26 L 89 26 Z M 89 22.050781 " clip-rule="nonzero"/></clipPath><clipPath id="02072de4a3"><path d="M 88.578125 24 L 92.71875 24 L 92.71875 27.242188 L 88.578125 27.242188 Z M 88.578125 24 " clip-rule="nonzero"/></clipPath></defs><g clip-path="url(#6aa2199b58)"><path fill="#0068f3" d="M 29.371094 20.613281 L 29.339844 20.6875 C 29.339844 20.6875 25.734375 29.160156 24.511719 32.042969 L 28 35.78125 L 33.878906 21.902344 L 37.726562 12.8125 L 25.921875 16.847656 " fill-opacity="1" fill-rule="nonzero"/></g><g clip-path="url(#0b59f6033b)"><path fill="#0068f3" d="M 38.140625 27.871094 L 50.207031 17.796875 L 38.125 12.921875 L 36.390625 17.21875 L 40.765625 18.984375 L 33.960938 24.828125 " fill-opacity="1" fill-rule="nonzero"/></g><g clip-path="url(#4d94dbfe09)"><path fill="#ccff00" d="M 33.386719 25.457031 L 46.3125 35.152344 L 38.289062 35.457031 L 32.085938 30.378906 L 33.386719 25.457031 " fill-opacity="1" fill-rule="nonzero"/></g><g clip-path="url(#eb973dfe98)"><path fill="#ccff00" d="M 43.4375 34.035156 C 40.605469 37.804688 36.097656 40.238281 31.023438 40.238281 C 25.550781 40.238281 20.738281 37.40625 17.976562 33.121094 C 16.414062 30.699219 15.507812 27.816406 15.507812 24.722656 C 15.507812 24.460938 15.511719 24.203125 15.523438 23.945312 C 15.929688 15.738281 22.714844 9.203125 31.023438 9.203125 C 31.363281 9.203125 31.703125 9.214844 32.035156 9.238281 C 31.984375 9.289062 31.941406 9.355469 31.910156 9.429688 C 31.832031 9.617188 31.84375 9.832031 31.835938 10.027344 C 31.835938 10.109375 31.722656 10.203125 31.679688 10.261719 C 31.582031 10.386719 31.527344 10.507812 31.476562 10.660156 C 31.464844 10.695312 31.460938 10.730469 31.457031 10.761719 C 31.3125 10.757812 31.167969 10.753906 31.023438 10.753906 C 23.3125 10.753906 17.058594 17.007812 17.058594 24.722656 C 17.058594 24.839844 17.058594 24.960938 17.0625 25.082031 C 17.066406 25.199219 17.070312 25.320312 17.074219 25.4375 L 17.074219 25.441406 C 17.082031 25.558594 17.089844 25.675781 17.097656 25.792969 L 17.097656 25.796875 C 17.105469 25.914062 17.117188 26.03125 17.128906 26.148438 C 17.152344 26.382812 17.183594 26.617188 17.21875 26.847656 C 17.234375 26.964844 17.253906 27.078125 17.273438 27.191406 L 17.273438 27.195312 C 17.292969 27.308594 17.316406 27.421875 17.339844 27.535156 C 17.363281 27.648438 17.386719 27.761719 17.414062 27.875 C 17.460938 28.082031 17.515625 28.289062 17.570312 28.492188 C 17.574219 28.5 17.578125 28.507812 17.582031 28.519531 C 17.589844 28.550781 17.597656 28.585938 17.609375 28.617188 C 17.628906 28.6875 17.648438 28.757812 17.671875 28.824219 C 17.683594 28.863281 17.695312 28.902344 17.707031 28.941406 C 17.726562 29.003906 17.75 29.070312 17.769531 29.132812 C 17.78125 29.171875 17.792969 29.207031 17.808594 29.246094 C 17.832031 29.3125 17.855469 29.382812 17.878906 29.453125 C 17.890625 29.480469 17.902344 29.511719 17.914062 29.542969 C 17.949219 29.644531 17.988281 29.742188 18.023438 29.839844 L 18.027344 29.84375 C 18.066406 29.941406 18.105469 30.035156 18.144531 30.132812 C 18.15625 30.164062 18.171875 30.191406 18.183594 30.222656 C 18.214844 30.289062 18.242188 30.355469 18.269531 30.421875 C 18.285156 30.457031 18.300781 30.492188 18.320312 30.527344 C 18.347656 30.589844 18.375 30.652344 18.40625 30.710938 C 18.421875 30.746094 18.4375 30.78125 18.453125 30.816406 C 18.484375 30.878906 18.519531 30.945312 18.550781 31.011719 C 18.566406 31.039062 18.582031 31.070312 18.59375 31.097656 C 18.640625 31.191406 18.691406 31.28125 18.742188 31.375 C 18.746094 31.382812 18.75 31.394531 18.757812 31.402344 C 18.800781 31.484375 18.847656 31.566406 18.894531 31.644531 C 18.910156 31.675781 18.929688 31.707031 18.945312 31.738281 C 18.980469 31.796875 19.015625 31.859375 19.054688 31.917969 C 19.074219 31.953125 19.09375 31.984375 19.113281 32.015625 L 19.222656 32.1875 C 19.242188 32.21875 19.261719 32.253906 19.28125 32.285156 C 19.320312 32.347656 19.359375 32.40625 19.402344 32.46875 C 19.421875 32.492188 19.4375 32.519531 19.453125 32.542969 C 19.511719 32.628906 19.570312 32.714844 19.628906 32.800781 C 19.640625 32.8125 19.648438 32.828125 19.660156 32.839844 C 19.710938 32.910156 19.761719 32.980469 19.8125 33.050781 C 19.835938 33.078125 19.855469 33.105469 19.875 33.136719 C 19.917969 33.191406 19.960938 33.246094 20.003906 33.300781 C 20.027344 33.332031 20.050781 33.359375 20.074219 33.390625 C 20.117188 33.445312 20.160156 33.496094 20.199219 33.546875 C 20.226562 33.578125 20.25 33.605469 20.273438 33.636719 C 20.320312 33.691406 20.367188 33.746094 20.417969 33.804688 C 20.4375 33.828125 20.457031 33.851562 20.472656 33.871094 C 20.542969 33.949219 20.609375 34.027344 20.679688 34.105469 C 20.691406 34.117188 20.707031 34.132812 20.722656 34.148438 C 20.777344 34.210938 20.832031 34.273438 20.890625 34.332031 L 20.964844 34.40625 C 21.011719 34.457031 21.0625 34.507812 21.109375 34.554688 C 21.136719 34.582031 21.164062 34.609375 21.191406 34.636719 C 21.238281 34.6875 21.289062 34.734375 21.339844 34.78125 C 21.363281 34.804688 21.390625 34.832031 21.417969 34.855469 C 21.472656 34.910156 21.527344 34.960938 21.582031 35.011719 C 21.605469 35.03125 21.625 35.050781 21.644531 35.070312 C 21.722656 35.136719 21.796875 35.207031 21.875 35.273438 C 21.894531 35.289062 21.914062 35.304688 21.929688 35.320312 C 21.992188 35.371094 22.050781 35.421875 22.113281 35.472656 C 22.140625 35.496094 22.167969 35.519531 22.195312 35.542969 C 22.25 35.585938 22.304688 35.628906 22.359375 35.671875 C 22.386719 35.695312 22.417969 35.71875 22.445312 35.742188 C 22.5 35.785156 22.554688 35.828125 22.613281 35.867188 C 22.640625 35.890625 22.667969 35.910156 22.699219 35.933594 C 22.761719 35.980469 22.828125 36.027344 22.890625 36.074219 C 22.910156 36.089844 22.929688 36.101562 22.949219 36.117188 C 23.035156 36.175781 23.117188 36.234375 23.203125 36.292969 C 23.226562 36.308594 23.246094 36.320312 23.269531 36.335938 C 23.335938 36.378906 23.398438 36.421875 23.464844 36.464844 C 23.496094 36.484375 23.527344 36.503906 23.558594 36.523438 C 23.617188 36.5625 23.671875 36.597656 23.730469 36.632812 C 23.765625 36.652344 23.796875 36.671875 23.832031 36.691406 C 23.890625 36.730469 23.949219 36.761719 24.007812 36.796875 C 24.039062 36.816406 24.070312 36.835938 24.101562 36.851562 C 24.175781 36.894531 24.246094 36.933594 24.316406 36.972656 C 24.335938 36.984375 24.355469 36.996094 24.375 37.003906 C 24.46875 37.054688 24.558594 37.105469 24.652344 37.152344 C 24.675781 37.164062 24.703125 37.175781 24.726562 37.1875 C 24.792969 37.222656 24.863281 37.257812 24.933594 37.289062 C 24.964844 37.308594 25 37.324219 25.035156 37.339844 C 25.097656 37.367188 25.15625 37.398438 25.21875 37.425781 C 25.253906 37.441406 25.292969 37.457031 25.328125 37.472656 C 25.390625 37.503906 25.453125 37.53125 25.515625 37.558594 C 25.550781 37.570312 25.585938 37.585938 25.617188 37.601562 C 25.695312 37.632812 25.777344 37.667969 25.855469 37.699219 C 25.875 37.703125 25.890625 37.710938 25.910156 37.71875 C 26.007812 37.757812 26.105469 37.796875 26.203125 37.832031 C 26.230469 37.84375 26.257812 37.851562 26.289062 37.863281 C 26.359375 37.886719 26.433594 37.914062 26.503906 37.9375 C 26.539062 37.949219 26.574219 37.960938 26.613281 37.972656 C 26.675781 37.996094 26.742188 38.015625 26.808594 38.039062 C 26.847656 38.050781 26.882812 38.0625 26.921875 38.074219 C 26.992188 38.09375 27.058594 38.117188 27.125 38.136719 C 27.160156 38.144531 27.195312 38.15625 27.230469 38.164062 C 27.320312 38.1875 27.40625 38.214844 27.496094 38.238281 C 27.511719 38.242188 27.523438 38.246094 27.539062 38.25 C 27.640625 38.273438 27.746094 38.300781 27.847656 38.324219 C 27.882812 38.332031 27.914062 38.335938 27.945312 38.34375 C 28.015625 38.363281 28.089844 38.378906 28.164062 38.394531 C 28.203125 38.402344 28.242188 38.410156 28.28125 38.417969 C 28.351562 38.429688 28.417969 38.445312 28.484375 38.457031 C 28.523438 38.460938 28.5625 38.46875 28.601562 38.476562 C 28.675781 38.488281 28.75 38.5 28.820312 38.515625 C 28.855469 38.519531 28.890625 38.523438 28.925781 38.53125 C 29.027344 38.542969 29.128906 38.558594 29.230469 38.574219 C 29.234375 38.574219 29.242188 38.574219 29.246094 38.574219 C 29.355469 38.589844 29.460938 38.601562 29.570312 38.613281 C 29.605469 38.617188 29.640625 38.617188 29.671875 38.621094 C 29.75 38.628906 29.824219 38.636719 29.898438 38.640625 C 29.933594 38.644531 29.964844 38.648438 29.996094 38.648438 C 30.003906 38.648438 30.011719 38.648438 30.019531 38.652344 C 30.089844 38.65625 30.164062 38.660156 30.234375 38.664062 C 30.273438 38.667969 30.316406 38.667969 30.355469 38.671875 C 30.433594 38.675781 30.507812 38.675781 30.582031 38.679688 C 30.617188 38.679688 30.652344 38.683594 30.691406 38.683594 C 30.800781 38.6875 30.910156 38.6875 31.023438 38.6875 C 31.070312 38.6875 31.113281 38.6875 31.160156 38.6875 L 31.183594 38.6875 C 31.203125 38.6875 31.226562 38.6875 31.25 38.6875 C 35.925781 38.671875 40.195312 36.917969 43.4375 34.035156 Z M 43.4375 34.035156 " fill-opacity="1" fill-rule="evenodd"/></g><path fill="#0068f3" d="M 31.800781 37.113281 C 31.695312 37.121094 31.589844 37.125 31.484375 37.128906 C 31.332031 37.136719 31.179688 37.136719 31.023438 37.136719 C 29.617188 37.136719 28.265625 36.90625 27.003906 36.472656 C 22.171875 34.820312 18.679688 30.265625 18.609375 24.886719 C 18.609375 24.832031 18.609375 24.777344 18.609375 24.722656 C 18.609375 24.671875 18.609375 24.621094 18.609375 24.574219 C 18.6875 18.789062 23.308594 14.101562 29.066406 13.914062 L 29.019531 14.042969 C 27.390625 14.347656 25.886719 15.015625 24.601562 15.957031 C 21.957031 17.902344 20.222656 21.011719 20.160156 24.527344 C 20.160156 24.59375 20.160156 24.65625 20.160156 24.722656 C 20.160156 28.773438 22.101562 32.371094 25.105469 34.636719 C 26.992188 36.0625 29.296875 36.960938 31.800781 37.113281 Z M 31.800781 37.113281 " fill-opacity="1" fill-rule="evenodd"/><g clip-path="url(#c05ea5921f)"><path fill="#ccff00" d="M 36.382812 9.984375 C 36.363281 10.035156 36.316406 10.085938 36.246094 10.128906 C 36.078125 10.238281 35.765625 10.332031 35.351562 10.402344 C 35.335938 10.40625 35.324219 10.410156 35.308594 10.410156 C 35.066406 10.453125 34.792969 10.488281 34.5 10.515625 C 34.265625 10.539062 34.023438 10.554688 33.765625 10.570312 L 33.496094 10.941406 L 32.976562 11.65625 L 32.609375 12.164062 L 31.953125 13.066406 L 31.5625 13.605469 L 31.425781 13.792969 L 31.269531 14.007812 L 31.222656 14.070312 C 31.144531 14.164062 31.023438 14.222656 30.890625 14.222656 C 30.648438 14.222656 30.449219 14.023438 30.449219 13.78125 C 30.449219 13.757812 30.453125 13.734375 30.457031 13.710938 C 30.480469 13.652344 30.503906 13.59375 30.523438 13.535156 C 30.53125 13.519531 30.535156 13.503906 30.542969 13.488281 C 30.550781 13.46875 30.558594 13.449219 30.566406 13.425781 L 30.996094 12.257812 C 31.160156 11.761719 31.3125 11.265625 31.449219 10.769531 C 31.453125 10.75 31.460938 10.734375 31.464844 10.714844 L 28.671875 10.714844 L 28.671875 9.476562 C 28.90625 9.429688 29.144531 9.390625 29.386719 9.359375 C 29.761719 9.308594 30.144531 9.273438 30.523438 9.25 L 31.464844 9.25 C 31.464844 9.246094 31.460938 9.238281 31.460938 9.234375 C 31.320312 8.726562 31.164062 8.214844 30.996094 7.707031 L 30.625 6.691406 L 30.570312 6.539062 C 30.5625 6.519531 30.550781 6.5 30.542969 6.480469 C 30.539062 6.464844 30.53125 6.449219 30.527344 6.433594 C 30.503906 6.375 30.480469 6.316406 30.457031 6.257812 C 30.453125 6.234375 30.449219 6.210938 30.449219 6.1875 C 30.449219 5.941406 30.648438 5.746094 30.890625 5.746094 C 31.023438 5.746094 31.144531 5.804688 31.222656 5.898438 L 31.269531 5.960938 L 31.425781 6.175781 L 31.5625 6.363281 L 31.875 6.789062 L 31.953125 6.902344 L 32.609375 7.804688 L 32.980469 8.3125 L 33.765625 9.394531 C 34.023438 9.410156 34.269531 9.429688 34.5 9.453125 C 34.796875 9.480469 35.066406 9.515625 35.308594 9.558594 C 35.324219 9.558594 35.339844 9.5625 35.351562 9.5625 C 35.765625 9.636719 36.078125 9.726562 36.246094 9.835938 C 36.316406 9.882812 36.363281 9.929688 36.382812 9.984375 Z M 36.382812 9.984375 " fill-opacity="1" fill-rule="evenodd"/></g><g fill="#c1ff72" fill-opacity="1"><g transform="translate(54.622245, 36.748608)"><g><path d="M 4.609375 -6.140625 C 4.640625 -6.003906 4.65625 -5.832031 4.65625 -5.625 C 4.65625 -5.4375 4.640625 -5.269531 4.609375 -5.125 C 4.640625 -4.976562 4.65625 -4.804688 4.65625 -4.609375 C 4.65625 -4.410156 4.640625 -4.238281 4.609375 -4.09375 C 4.640625 -3.957031 4.65625 -3.785156 4.65625 -3.578125 C 4.65625 -3.378906 4.640625 -3.210938 4.609375 -3.078125 C 4.640625 -2.929688 4.65625 -2.757812 4.65625 -2.5625 C 4.65625 -2.363281 4.640625 -2.191406 4.609375 -2.046875 C 4.640625 -1.910156 4.65625 -1.738281 4.65625 -1.53125 C 4.65625 -1.332031 4.640625 -1.164062 4.609375 -1.03125 C 4.640625 -0.882812 4.65625 -0.710938 4.65625 -0.515625 C 4.65625 -0.316406 4.640625 -0.144531 4.609375 0 L 3.578125 0 C 3.546875 -0.144531 3.53125 -0.316406 3.53125 -0.515625 C 3.53125 -0.710938 3.546875 -0.882812 3.578125 -1.03125 C 3.546875 -1.164062 3.53125 -1.332031 3.53125 -1.53125 C 3.53125 -1.738281 3.546875 -1.910156 3.578125 -2.046875 C 3.546875 -2.191406 3.53125 -2.363281 3.53125 -2.5625 C 3.53125 -2.757812 3.546875 -2.929688 3.578125 -3.078125 C 3.546875 -3.210938 3.53125 -3.378906 3.53125 -3.578125 C 3.53125 -3.785156 3.546875 -3.957031 3.578125 -4.09375 C 3.546875 -4.238281 3.53125 -4.410156 3.53125 -4.609375 C 3.53125 -4.804688 3.546875 -4.976562 3.578125 -5.125 L 3.203125 -5.125 C 3.234375 -4.976562 3.25 -4.804688 3.25 -4.609375 C 3.25 -4.410156 3.234375 -4.238281 3.203125 -4.09375 C 3.234375 -3.957031 3.25 -3.785156 3.25 -3.578125 C 3.25 -3.378906 3.234375 -3.210938 3.203125 -3.078125 L 2.9375 -3.078125 C 2.976562 -2.929688 3 -2.757812 3 -2.5625 C 3 -2.363281 2.976562 -2.191406 2.9375 -2.046875 C 2.976562 -1.910156 3 -1.738281 3 -1.53125 C 3 -1.332031 2.976562 -1.164062 2.9375 -1.03125 L 2.171875 -1.03125 C 2.140625 -1.164062 2.125 -1.332031 2.125 -1.53125 C 2.125 -1.738281 2.140625 -1.910156 2.171875 -2.046875 C 2.140625 -2.191406 2.125 -2.363281 2.125 -2.5625 C 2.125 -2.757812 2.140625 -2.929688 2.171875 -3.078125 L 1.921875 -3.078125 C 1.890625 -3.210938 1.875 -3.378906 1.875 -3.578125 C 1.875 -3.785156 1.890625 -3.957031 1.921875 -4.09375 C 1.890625 -4.238281 1.875 -4.410156 1.875 -4.609375 C 1.875 -4.804688 1.890625 -4.976562 1.921875 -5.125 L 1.53125 -5.125 C 1.570312 -4.976562 1.59375 -4.804688 1.59375 -4.609375 C 1.59375 -4.410156 1.570312 -4.238281 1.53125 -4.09375 C 1.570312 -3.957031 1.59375 -3.785156 1.59375 -3.578125 C 1.59375 -3.378906 1.570312 -3.210938 1.53125 -3.078125 C 1.570312 -2.929688 1.59375 -2.757812 1.59375 -2.5625 C 1.59375 -2.363281 1.570312 -2.191406 1.53125 -2.046875 C 1.570312 -1.910156 1.59375 -1.738281 1.59375 -1.53125 C 1.59375 -1.332031 1.570312 -1.164062 1.53125 -1.03125 C 1.570312 -0.882812 1.59375 -0.710938 1.59375 -0.515625 C 1.59375 -0.316406 1.570312 -0.144531 1.53125 0 L 0.515625 0 C 0.472656 -0.144531 0.453125 -0.316406 0.453125 -0.515625 C 0.453125 -0.710938 0.472656 -0.882812 0.515625 -1.03125 C 0.472656 -1.164062 0.453125 -1.332031 0.453125 -1.53125 C 0.453125 -1.738281 0.472656 -1.910156 0.515625 -2.046875 C 0.472656 -2.191406 0.453125 -2.363281 0.453125 -2.5625 C 0.453125 -2.757812 0.472656 -2.929688 0.515625 -3.078125 C 0.472656 -3.210938 0.453125 -3.378906 0.453125 -3.578125 C 0.453125 -3.785156 0.472656 -3.957031 0.515625 -4.09375 C 0.472656 -4.238281 0.453125 -4.410156 0.453125 -4.609375 C 0.453125 -4.804688 0.472656 -4.976562 0.515625 -5.125 C 0.472656 -5.269531 0.453125 -5.4375 0.453125 -5.625 C 0.453125 -5.832031 0.472656 -6.003906 0.515625 -6.140625 C 0.472656 -6.285156 0.453125 -6.457031 0.453125 -6.65625 C 0.453125 -6.863281 0.472656 -7.035156 0.515625 -7.171875 L 1.796875 -7.171875 C 1.828125 -7.035156 1.84375 -6.863281 1.84375 -6.65625 C 1.84375 -6.457031 1.828125 -6.285156 1.796875 -6.140625 L 2.171875 -6.140625 C 2.210938 -6.003906 2.234375 -5.832031 2.234375 -5.625 C 2.234375 -5.4375 2.210938 -5.269531 2.171875 -5.125 L 2.375 -5.125 C 2.40625 -4.976562 2.421875 -4.804688 2.421875 -4.609375 C 2.421875 -4.410156 2.40625 -4.238281 2.375 -4.09375 L 2.75 -4.09375 C 2.71875 -4.238281 2.703125 -4.410156 2.703125 -4.609375 C 2.703125 -4.804688 2.71875 -4.976562 2.75 -5.125 L 2.9375 -5.125 C 2.90625 -5.269531 2.890625 -5.4375 2.890625 -5.625 C 2.890625 -5.832031 2.90625 -6.003906 2.9375 -6.140625 L 3.328125 -6.140625 C 3.296875 -6.285156 3.28125 -6.457031 3.28125 -6.65625 C 3.28125 -6.863281 3.296875 -7.035156 3.328125 -7.171875 L 4.609375 -7.171875 C 4.640625 -7.035156 4.65625 -6.863281 4.65625 -6.65625 C 4.65625 -6.457031 4.640625 -6.285156 4.609375 -6.140625 Z M 4.609375 -6.140625 "/></g></g></g><g fill="#c1ff72" fill-opacity="1"><g transform="translate(62.826995, 36.748608)"><g><path d="M 2.046875 -3.078125 C 2.078125 -2.929688 2.09375 -2.757812 2.09375 -2.5625 C 2.09375 -2.363281 2.078125 -2.191406 2.046875 -2.046875 C 2.078125 -1.910156 2.09375 -1.738281 2.09375 -1.53125 C 2.09375 -1.332031 2.078125 -1.164062 2.046875 -1.03125 L 4.09375 -1.03125 C 4.125 -0.882812 4.140625 -0.710938 4.140625 -0.515625 C 4.140625 -0.316406 4.125 -0.144531 4.09375 0 L 1.03125 0 C 0.988281 -0.144531 0.96875 -0.316406 0.96875 -0.515625 C 0.96875 -0.710938 0.988281 -0.882812 1.03125 -1.03125 C 0.988281 -1.164062 0.96875 -1.332031 0.96875 -1.53125 C 0.96875 -1.738281 0.988281 -1.910156 1.03125 -2.046875 C 0.988281 -2.191406 0.96875 -2.363281 0.96875 -2.5625 C 0.96875 -2.757812 0.988281 -2.929688 1.03125 -3.078125 C 0.988281 -3.210938 0.96875 -3.378906 0.96875 -3.578125 C 0.96875 -3.785156 0.988281 -3.957031 1.03125 -4.09375 C 0.988281 -4.238281 0.96875 -4.410156 0.96875 -4.609375 C 0.96875 -4.804688 0.988281 -4.976562 1.03125 -5.125 C 0.988281 -5.269531 0.96875 -5.4375 0.96875 -5.625 C 0.96875 -5.832031 0.988281 -6.003906 1.03125 -6.140625 C 0.988281 -6.285156 0.96875 -6.457031 0.96875 -6.65625 C 0.96875 -6.863281 0.988281 -7.035156 1.03125 -7.171875 L 4.09375 -7.171875 C 4.125 -7.035156 4.140625 -6.863281 4.140625 -6.65625 C 4.140625 -6.457031 4.125 -6.285156 4.09375 -6.140625 L 2.046875 -6.140625 C 2.078125 -6.003906 2.09375 -5.832031 2.09375 -5.625 C 2.09375 -5.4375 2.078125 -5.269531 2.046875 -5.125 C 2.078125 -4.976562 2.09375 -4.804688 2.09375 -4.609375 C 2.09375 -4.410156 2.078125 -4.238281 2.046875 -4.09375 L 4.09375 -4.09375 C 4.125 -3.957031 4.140625 -3.785156 4.140625 -3.578125 C 4.140625 -3.378906 4.125 -3.210938 4.09375 -3.078125 Z M 2.046875 -3.078125 "/></g></g></g><g fill="#c1ff72" fill-opacity="1"><g transform="translate(71.031746, 36.748608)"><g><path d="M 4.609375 -4.09375 C 4.640625 -3.957031 4.65625 -3.785156 4.65625 -3.578125 C 4.65625 -3.378906 4.640625 -3.210938 4.609375 -3.078125 C 4.640625 -2.929688 4.65625 -2.757812 4.65625 -2.5625 C 4.65625 -2.363281 4.640625 -2.191406 4.609375 -2.046875 L 4.09375 -2.046875 C 4.125 -1.910156 4.140625 -1.738281 4.140625 -1.53125 C 4.140625 -1.332031 4.125 -1.164062 4.09375 -1.03125 L 3.578125 -1.03125 C 3.617188 -0.882812 3.640625 -0.710938 3.640625 -0.515625 C 3.640625 -0.316406 3.617188 -0.144531 3.578125 0 L 0.515625 0 C 0.472656 -0.144531 0.453125 -0.316406 0.453125 -0.515625 C 0.453125 -0.710938 0.472656 -0.882812 0.515625 -1.03125 C 0.472656 -1.164062 0.453125 -1.332031 0.453125 -1.53125 C 0.453125 -1.738281 0.472656 -1.910156 0.515625 -2.046875 C 0.472656 -2.191406 0.453125 -2.363281 0.453125 -2.5625 C 0.453125 -2.757812 0.472656 -2.929688 0.515625 -3.078125 C 0.472656 -3.210938 0.453125 -3.378906 0.453125 -3.578125 C 0.453125 -3.785156 0.472656 -3.957031 0.515625 -4.09375 C 0.472656 -4.238281 0.453125 -4.410156 0.453125 -4.609375 C 0.453125 -4.804688 0.472656 -4.976562 0.515625 -5.125 C 0.472656 -5.269531 0.453125 -5.4375 0.453125 -5.625 C 0.453125 -5.832031 0.472656 -6.003906 0.515625 -6.140625 C 0.472656 -6.285156 0.453125 -6.457031 0.453125 -6.65625 C 0.453125 -6.863281 0.472656 -7.035156 0.515625 -7.171875 L 3.578125 -7.171875 C 3.617188 -7.035156 3.640625 -6.863281 3.640625 -6.65625 C 3.640625 -6.457031 3.617188 -6.285156 3.578125 -6.140625 L 4.09375 -6.140625 C 4.125 -6.003906 4.140625 -5.832031 4.140625 -5.625 C 4.140625 -5.4375 4.125 -5.269531 4.09375 -5.125 L 4.609375 -5.125 C 4.640625 -4.976562 4.65625 -4.804688 4.65625 -4.609375 C 4.65625 -4.410156 4.640625 -4.238281 4.609375 -4.09375 Z M 3.578125 -2.046875 C 3.546875 -2.191406 3.53125 -2.363281 3.53125 -2.5625 C 3.53125 -2.757812 3.546875 -2.929688 3.578125 -3.078125 C 3.546875 -3.210938 3.53125 -3.378906 3.53125 -3.578125 C 3.53125 -3.785156 3.546875 -3.957031 3.578125 -4.09375 C 3.546875 -4.238281 3.53125 -4.410156 3.53125 -4.609375 C 3.53125 -4.804688 3.546875 -4.976562 3.578125 -5.125 L 3.078125 -5.125 C 3.035156 -5.269531 3.015625 -5.4375 3.015625 -5.625 C 3.015625 -5.832031 3.035156 -6.003906 3.078125 -6.140625 L 1.53125 -6.140625 C 1.570312 -6.003906 1.59375 -5.832031 1.59375 -5.625 C 1.59375 -5.4375 1.570312 -5.269531 1.53125 -5.125 C 1.570312 -4.976562 1.59375 -4.804688 1.59375 -4.609375 C 1.59375 -4.410156 1.570312 -4.238281 1.53125 -4.09375 C 1.570312 -3.957031 1.59375 -3.785156 1.59375 -3.578125 C 1.59375 -3.378906 1.570312 -3.210938 1.53125 -3.078125 C 1.570312 -2.929688 1.59375 -2.757812 1.59375 -2.5625 C 1.59375 -2.363281 1.570312 -2.191406 1.53125 -2.046875 C 1.570312 -1.910156 1.59375 -1.738281 1.59375 -1.53125 C 1.59375 -1.332031 1.570312 -1.164062 1.53125 -1.03125 L 3.078125 -1.03125 C 3.035156 -1.164062 3.015625 -1.332031 3.015625 -1.53125 C 3.015625 -1.738281 3.035156 -1.910156 3.078125 -2.046875 Z M 3.578125 -2.046875 "/></g></g></g><g fill="#c1ff72" fill-opacity="1"><g transform="translate(79.236497, 36.748608)"><g><path d="M 3.84375 -1.03125 C 3.875 -0.882812 3.890625 -0.710938 3.890625 -0.515625 C 3.890625 -0.316406 3.875 -0.144531 3.84375 0 L 1.28125 0 C 1.25 -0.144531 1.234375 -0.316406 1.234375 -0.515625 C 1.234375 -0.710938 1.25 -0.882812 1.28125 -1.03125 L 2.046875 -1.03125 C 2.015625 -1.164062 2 -1.332031 2 -1.53125 C 2 -1.738281 2.015625 -1.910156 2.046875 -2.046875 C 2.015625 -2.191406 2 -2.363281 2 -2.5625 C 2 -2.757812 2.015625 -2.929688 2.046875 -3.078125 C 2.015625 -3.210938 2 -3.378906 2 -3.578125 C 2 -3.785156 2.015625 -3.957031 2.046875 -4.09375 C 2.015625 -4.238281 2 -4.410156 2 -4.609375 C 2 -4.804688 2.015625 -4.976562 2.046875 -5.125 C 2.015625 -5.269531 2 -5.4375 2 -5.625 C 2 -5.832031 2.015625 -6.003906 2.046875 -6.140625 L 1.28125 -6.140625 C 1.25 -6.285156 1.234375 -6.457031 1.234375 -6.65625 C 1.234375 -6.863281 1.25 -7.035156 1.28125 -7.171875 L 3.84375 -7.171875 C 3.875 -7.035156 3.890625 -6.863281 3.890625 -6.65625 C 3.890625 -6.457031 3.875 -6.285156 3.84375 -6.140625 L 3.078125 -6.140625 C 3.109375 -6.003906 3.125 -5.832031 3.125 -5.625 C 3.125 -5.4375 3.109375 -5.269531 3.078125 -5.125 C 3.109375 -4.976562 3.125 -4.804688 3.125 -4.609375 C 3.125 -4.410156 3.109375 -4.238281 3.078125 -4.09375 C 3.109375 -3.957031 3.125 -3.785156 3.125 -3.578125 C 3.125 -3.378906 3.109375 -3.210938 3.078125 -3.078125 C 3.109375 -2.929688 3.125 -2.757812 3.125 -2.5625 C 3.125 -2.363281 3.109375 -2.191406 3.078125 -2.046875 C 3.109375 -1.910156 3.125 -1.738281 3.125 -1.53125 C 3.125 -1.332031 3.109375 -1.164062 3.078125 -1.03125 Z M 3.84375 -1.03125 "/></g></g></g><g fill="#c1ff72" fill-opacity="1"><g transform="translate(87.441246, 36.748608)"><g><path d="M 4.65625 -1.53125 C 4.65625 -1.332031 4.640625 -1.164062 4.609375 -1.03125 C 4.640625 -0.882812 4.65625 -0.710938 4.65625 -0.515625 C 4.65625 -0.316406 4.640625 -0.144531 4.609375 0 L 3.578125 0 C 3.546875 -0.144531 3.53125 -0.316406 3.53125 -0.515625 C 3.53125 -0.710938 3.546875 -0.882812 3.578125 -1.03125 C 3.546875 -1.164062 3.53125 -1.332031 3.53125 -1.53125 C 3.53125 -1.738281 3.546875 -1.910156 3.578125 -2.046875 L 1.53125 -2.046875 C 1.570312 -1.910156 1.59375 -1.738281 1.59375 -1.53125 C 1.59375 -1.332031 1.570312 -1.164062 1.53125 -1.03125 C 1.570312 -0.882812 1.59375 -0.710938 1.59375 -0.515625 C 1.59375 -0.316406 1.570312 -0.144531 1.53125 0 L 0.515625 0 C 0.472656 -0.144531 0.453125 -0.316406 0.453125 -0.515625 C 0.453125 -0.710938 0.472656 -0.882812 0.515625 -1.03125 C 0.472656 -1.164062 0.453125 -1.332031 0.453125 -1.53125 C 0.453125 -1.738281 0.472656 -1.910156 0.515625 -2.046875 L 0.890625 -2.046875 C 0.859375 -2.191406 0.84375 -2.363281 0.84375 -2.5625 C 0.84375 -2.757812 0.859375 -2.929688 0.890625 -3.078125 C 0.859375 -3.210938 0.84375 -3.378906 0.84375 -3.578125 C 0.84375 -3.785156 0.859375 -3.957031 0.890625 -4.09375 L 1.15625 -4.09375 C 1.113281 -4.238281 1.09375 -4.410156 1.09375 -4.609375 C 1.09375 -4.804688 1.113281 -4.976562 1.15625 -5.125 L 1.53125 -5.125 C 1.5 -5.269531 1.484375 -5.4375 1.484375 -5.625 C 1.484375 -5.832031 1.5 -6.003906 1.53125 -6.140625 L 1.796875 -6.140625 C 1.753906 -6.285156 1.734375 -6.457031 1.734375 -6.65625 C 1.734375 -6.863281 1.753906 -7.035156 1.796875 -7.171875 L 3.328125 -7.171875 C 3.359375 -7.035156 3.375 -6.863281 3.375 -6.65625 C 3.375 -6.457031 3.359375 -6.285156 3.328125 -6.140625 L 3.578125 -6.140625 C 3.617188 -6.003906 3.640625 -5.832031 3.640625 -5.625 C 3.640625 -5.4375 3.617188 -5.269531 3.578125 -5.125 L 3.96875 -5.125 C 4 -4.976562 4.015625 -4.804688 4.015625 -4.609375 C 4.015625 -4.410156 4 -4.238281 3.96875 -4.09375 L 4.21875 -4.09375 C 4.257812 -3.957031 4.28125 -3.785156 4.28125 -3.578125 C 4.28125 -3.378906 4.257812 -3.210938 4.21875 -3.078125 C 4.257812 -2.929688 4.28125 -2.757812 4.28125 -2.5625 C 4.28125 -2.363281 4.257812 -2.191406 4.21875 -2.046875 L 4.609375 -2.046875 C 4.640625 -1.910156 4.65625 -1.738281 4.65625 -1.53125 Z M 3.203125 -3.078125 C 3.160156 -3.210938 3.140625 -3.378906 3.140625 -3.578125 C 3.140625 -3.785156 3.160156 -3.957031 3.203125 -4.09375 L 2.9375 -4.09375 C 2.90625 -4.238281 2.890625 -4.410156 2.890625 -4.609375 C 2.890625 -4.804688 2.90625 -4.976562 2.9375 -5.125 L 2.171875 -5.125 C 2.210938 -4.976562 2.234375 -4.804688 2.234375 -4.609375 C 2.234375 -4.410156 2.210938 -4.238281 2.171875 -4.09375 L 1.921875 -4.09375 C 1.953125 -3.957031 1.96875 -3.785156 1.96875 -3.578125 C 1.96875 -3.378906 1.953125 -3.210938 1.921875 -3.078125 Z M 3.203125 -3.078125 "/></g></g></g><path stroke-linecap="butt" transform="matrix(0.175334, 0, 0, 0.175334, 50.216114, 6.776078)" fill="none" stroke-linejoin="miter" d="M 12.223873 45.233402 C 12.223873 59.380508 19.954654 68.826765 31.517407 68.826765 C 38.223358 68.826765 43.28067 66.086459 47.112642 61.563841 L 47.112642 43.02779 L 29.868768 43.02779 L 29.868768 50.959081 L 38.490705 50.959081 L 38.490705 57.954658 C 37.042576 59.447345 34.569617 60.694964 31.517407 60.694964 C 25.702612 60.694964 21.647851 55.013842 21.647851 45.233402 C 21.647851 35.430683 25.702612 29.749562 31.517407 29.749562 C 35.260263 29.749562 37.800059 32.22252 39.248187 35.430683 L 46.689342 32.02201 C 44.238663 26.363168 39.448698 21.617761 31.517407 21.617761 C 19.954654 21.617761 12.223873 30.99718 12.223873 45.233402 Z M 85.410083 68.002445 L 77.12233 49.889694 C 80.887465 48.642075 85.053621 44.676429 85.053621 36.811975 C 85.053621 28.390548 79.506173 22.375243 71.173861 22.375243 L 54.152776 22.375243 L 54.152776 68.002445 L 63.309407 68.002445 L 63.309407 51.449217 L 68.233046 51.449217 L 75.206344 68.002445 Z M 75.69648 36.945649 C 75.69648 40.844457 73.379473 43.517926 69.814848 43.517926 L 63.309407 43.517926 L 63.309407 30.373371 L 69.814848 30.373371 C 73.379473 30.373371 75.69648 32.913166 75.69648 36.945649 Z M 89.977259 45.233402 C 89.977259 58.823535 97.08423 68.826765 109.003446 68.826765 C 120.967219 68.826765 128.096469 58.823535 128.096469 45.233402 C 128.096469 31.687827 120.967219 21.617761 109.003446 21.617761 C 97.08423 21.617761 89.977259 31.687827 89.977259 45.233402 Z M 118.69477 45.233402 C 118.69477 53.899897 115.286098 60.694964 109.003446 60.694964 C 102.765352 60.694964 99.423516 53.899897 99.423516 45.233402 C 99.423516 36.410955 102.765352 29.749562 109.003446 29.749562 C 115.286098 29.749562 118.69477 36.410955 118.69477 45.233402 Z M 171.985916 68.002445 L 182.390166 22.375243 L 172.52061 22.375243 L 166.728094 54.122686 L 160.155817 22.375243 L 152.982008 22.375243 L 146.476568 54.122686 L 140.572657 22.375243 L 130.747659 22.375243 L 141.12963 68.002445 L 150.70956 68.002445 L 156.524355 37.614016 L 162.405986 68.002445 Z M 203.577407 68.002445 L 203.577407 30.440208 L 213.69203 30.440208 L 213.69203 22.375243 L 184.217036 22.375243 L 184.217036 30.440208 L 194.398497 30.440208 L 194.398497 68.002445 Z M 252.680118 68.002445 L 252.680118 22.375243 L 243.45665 22.375243 L 243.45665 40.487995 L 228.351551 40.487995 L 228.351551 22.375243 L 219.172642 22.375243 L 219.172642 68.002445 L 228.351551 68.002445 L 228.351551 48.575238 L 243.45665 48.575238 L 243.45665 68.002445 Z M 252.680118 68.002445 " stroke="#138eff" stroke-width="1.710098" stroke-opacity="1" stroke-miterlimit="4"/><path fill="#138eff" d="M 61.355469 21.816406 L 85.847656 21.816406 C 85.980469 21.816406 86.085938 21.921875 86.085938 22.054688 L 86.085938 26.832031 C 86.085938 26.960938 85.980469 27.066406 85.847656 27.066406 L 61.355469 27.066406 C 61.226562 27.066406 61.121094 26.960938 61.121094 26.832031 L 61.121094 22.054688 C 61.121094 21.921875 61.226562 21.816406 61.355469 21.816406 Z M 61.355469 21.816406 " fill-opacity="1" fill-rule="nonzero"/><g fill="#ffffff" fill-opacity="1"><g transform="translate(63.335936, 25.76218)"><g><path d="M 2.015625 -0.046875 L 1.5 -1.203125 L 0.65625 -1.203125 L 0.65625 -0.0625 C 0.65625 -0.0195312 0.640625 0 0.609375 0 L 0.421875 0 C 0.378906 0 0.359375 -0.0195312 0.359375 -0.0625 L 0.359375 -2.65625 C 0.359375 -2.695312 0.378906 -2.71875 0.421875 -2.71875 L 1.8125 -2.71875 C 1.894531 -2.71875 1.96875 -2.703125 2.03125 -2.671875 C 2.101562 -2.640625 2.164062 -2.597656 2.21875 -2.546875 C 2.28125 -2.492188 2.320312 -2.429688 2.34375 -2.359375 C 2.375 -2.285156 2.390625 -2.210938 2.390625 -2.140625 L 2.390625 -1.78125 C 2.390625 -1.65625 2.347656 -1.539062 2.265625 -1.4375 C 2.191406 -1.332031 2.097656 -1.265625 1.984375 -1.234375 L 1.84375 -1.1875 L 2.34375 -0.046875 C 2.351562 -0.0351562 2.351562 -0.0234375 2.34375 -0.015625 C 2.34375 -0.00390625 2.332031 0 2.3125 0 L 2.09375 0 C 2.082031 0 2.066406 -0.00390625 2.046875 -0.015625 C 2.035156 -0.0234375 2.023438 -0.0351562 2.015625 -0.046875 Z M 0.65625 -1.5 L 1.8125 -1.5 C 1.894531 -1.5 1.960938 -1.523438 2.015625 -1.578125 C 2.066406 -1.640625 2.09375 -1.707031 2.09375 -1.78125 L 2.09375 -2.140625 C 2.09375 -2.210938 2.066406 -2.273438 2.015625 -2.328125 C 1.960938 -2.378906 1.894531 -2.40625 1.8125 -2.40625 L 0.65625 -2.40625 Z M 0.65625 -1.5 "/></g></g></g><g fill="#ffffff" fill-opacity="1"><g transform="translate(69.260255, 25.76218)"><g><path d="M 0.9375 0 C 0.851562 0 0.773438 -0.015625 0.703125 -0.046875 C 0.640625 -0.078125 0.582031 -0.117188 0.53125 -0.171875 C 0.476562 -0.222656 0.4375 -0.28125 0.40625 -0.34375 C 0.375 -0.414062 0.359375 -0.492188 0.359375 -0.578125 L 0.359375 -2.140625 C 0.359375 -2.210938 0.375 -2.285156 0.40625 -2.359375 C 0.4375 -2.429688 0.476562 -2.492188 0.53125 -2.546875 C 0.582031 -2.597656 0.640625 -2.640625 0.703125 -2.671875 C 0.773438 -2.703125 0.851562 -2.71875 0.9375 -2.71875 L 1.8125 -2.71875 C 1.894531 -2.71875 1.96875 -2.703125 2.03125 -2.671875 C 2.101562 -2.640625 2.164062 -2.597656 2.21875 -2.546875 C 2.28125 -2.492188 2.320312 -2.429688 2.34375 -2.359375 C 2.375 -2.285156 2.390625 -2.210938 2.390625 -2.140625 L 2.390625 -0.578125 C 2.390625 -0.492188 2.375 -0.414062 2.34375 -0.34375 C 2.320312 -0.28125 2.28125 -0.222656 2.21875 -0.171875 C 2.164062 -0.117188 2.101562 -0.078125 2.03125 -0.046875 C 1.96875 -0.015625 1.894531 0 1.8125 0 Z M 0.9375 -2.40625 C 0.863281 -2.40625 0.796875 -2.378906 0.734375 -2.328125 C 0.679688 -2.273438 0.65625 -2.210938 0.65625 -2.140625 L 0.65625 -0.578125 C 0.65625 -0.503906 0.679688 -0.4375 0.734375 -0.375 C 0.796875 -0.320312 0.863281 -0.296875 0.9375 -0.296875 L 1.8125 -0.296875 C 1.894531 -0.296875 1.960938 -0.320312 2.015625 -0.375 C 2.066406 -0.4375 2.09375 -0.503906 2.09375 -0.578125 L 2.09375 -2.140625 C 2.09375 -2.210938 2.066406 -2.273438 2.015625 -2.328125 C 1.960938 -2.378906 1.894531 -2.40625 1.8125 -2.40625 Z M 0.9375 -2.40625 "/></g></g></g><g fill="#ffffff" fill-opacity="1"><g transform="translate(75.184574, 25.76218)"><g><path d="M 2.015625 -2.671875 C 2.023438 -2.679688 2.035156 -2.691406 2.046875 -2.703125 C 2.066406 -2.710938 2.082031 -2.71875 2.09375 -2.71875 L 2.34375 -2.71875 C 2.375 -2.71875 2.390625 -2.695312 2.390625 -2.65625 L 2.390625 -0.0625 C 2.390625 -0.0195312 2.375 0 2.34375 0 L 2.15625 0 C 2.113281 0 2.09375 -0.0195312 2.09375 -0.0625 L 2.09375 -2.34375 L 1.515625 -1.40625 C 1.515625 -1.394531 1.503906 -1.382812 1.484375 -1.375 C 1.460938 -1.363281 1.445312 -1.359375 1.4375 -1.359375 L 1.328125 -1.359375 C 1.304688 -1.359375 1.285156 -1.363281 1.265625 -1.375 C 1.253906 -1.382812 1.242188 -1.394531 1.234375 -1.40625 L 0.65625 -2.34375 L 0.65625 -0.0625 C 0.65625 -0.0195312 0.640625 0 0.609375 0 L 0.421875 0 C 0.378906 0 0.359375 -0.0195312 0.359375 -0.0625 L 0.359375 -2.65625 C 0.359375 -2.695312 0.378906 -2.71875 0.421875 -2.71875 L 0.65625 -2.71875 C 0.675781 -2.71875 0.691406 -2.710938 0.703125 -2.703125 C 0.722656 -2.691406 0.738281 -2.679688 0.75 -2.671875 L 1.375 -1.71875 Z M 2.015625 -2.671875 "/></g></g></g><g fill="#ffffff" fill-opacity="1"><g transform="translate(81.108893, 25.76218)"><g><path d="M 1.75 -2.71875 C 1.757812 -2.71875 1.769531 -2.710938 1.78125 -2.703125 C 1.800781 -2.691406 1.816406 -2.675781 1.828125 -2.65625 L 2.375 -1.28125 C 2.375 -1.269531 2.375 -1.253906 2.375 -1.234375 C 2.382812 -1.210938 2.390625 -1.191406 2.390625 -1.171875 L 2.390625 -0.0625 C 2.390625 -0.0195312 2.375 0 2.34375 0 L 2.15625 0 C 2.113281 0 2.09375 -0.0195312 2.09375 -0.0625 L 2.09375 -0.78125 L 0.65625 -0.78125 L 0.65625 -0.0625 C 0.65625 -0.0195312 0.640625 0 0.609375 0 L 0.421875 0 C 0.378906 0 0.359375 -0.0195312 0.359375 -0.0625 L 0.359375 -1.171875 C 0.359375 -1.191406 0.359375 -1.210938 0.359375 -1.234375 C 0.367188 -1.253906 0.375 -1.269531 0.375 -1.28125 L 0.921875 -2.65625 C 0.929688 -2.675781 0.941406 -2.691406 0.953125 -2.703125 C 0.972656 -2.710938 0.988281 -2.71875 1 -2.71875 Z M 2.09375 -1.078125 L 2.09375 -1.171875 L 1.59375 -2.40625 L 1.15625 -2.40625 L 0.65625 -1.171875 L 0.65625 -1.078125 Z M 2.09375 -1.078125 "/></g></g></g><g clip-path="url(#514c6b7536)"><g clip-path="url(#f6dcc575f2)"><path fill="#138eff" d="M 85.460938 21.910156 L 96.246094 21.910156 L 96.246094 27.304688 L 85.460938 27.304688 Z M 85.460938 21.910156 " fill-opacity="1" fill-rule="nonzero"/></g></g><g clip-path="url(#111c6c6c23)"><g clip-path="url(#7d86ed95f4)"><path fill="#138eff" d="M 61.742188 27.304688 L 50.957031 27.304688 L 50.957031 21.910156 L 61.742188 21.910156 Z M 61.742188 27.304688 " fill-opacity="1" fill-rule="nonzero"/></g></g><path fill="#ffffff" d="M 56.460938 24.644531 C 56.429688 24.863281 56.398438 25.082031 56.367188 25.300781 C 56.363281 25.328125 56.359375 25.34375 56.347656 25.359375 C 56.285156 25.453125 56.21875 25.542969 56.160156 25.628906 C 56.023438 25.820312 55.882812 26.015625 55.746094 26.210938 C 55.71875 26.25 55.695312 26.285156 55.6875 26.332031 C 55.660156 26.449219 55.757812 26.570312 55.882812 26.5625 C 55.964844 26.558594 56.019531 26.515625 56.066406 26.457031 C 56.3125 26.148438 56.554688 25.839844 56.800781 25.527344 C 56.832031 25.492188 56.851562 25.445312 56.863281 25.398438 C 56.902344 25.203125 56.949219 25.011719 56.988281 24.8125 C 56.96875 24.808594 56.746094 24.785156 56.683594 24.773438 C 56.589844 24.753906 56.515625 24.710938 56.460938 24.644531 Z M 56.460938 24.644531 " fill-opacity="1" fill-rule="nonzero"/><g clip-path="url(#7f759122eb)"><path fill="#ffffff" d="M 57.800781 22.1875 C 57.894531 22.222656 57.964844 22.292969 58.003906 22.394531 C 58.042969 22.496094 58.039062 22.601562 58 22.707031 C 57.957031 22.8125 57.886719 22.890625 57.792969 22.941406 C 57.695312 22.988281 57.597656 22.996094 57.503906 22.957031 C 57.40625 22.921875 57.339844 22.851562 57.300781 22.75 C 57.261719 22.648438 57.261719 22.542969 57.304688 22.4375 C 57.34375 22.332031 57.414062 22.253906 57.511719 22.203125 C 57.609375 22.15625 57.703125 22.148438 57.800781 22.1875 Z M 57.800781 22.1875 " fill-opacity="1" fill-rule="nonzero"/></g><g clip-path="url(#5b64c2974b)"><path fill="#ffffff" d="M 55.566406 24.144531 C 55.613281 24.144531 55.644531 24.125 55.675781 24.105469 C 55.714844 24.082031 56.152344 23.625 56.203125 23.601562 C 56.253906 23.578125 56.746094 23.476562 56.746094 23.476562 L 56.507812 24.210938 C 56.488281 24.269531 56.480469 24.328125 56.484375 24.390625 C 56.492188 24.519531 56.554688 24.625 56.707031 24.660156 C 56.785156 24.675781 57.34375 24.738281 57.554688 24.761719 C 57.5 24.890625 57.226562 25.464844 57.15625 25.628906 C 57.101562 25.757812 57.183594 25.894531 57.308594 25.902344 C 57.414062 25.910156 57.484375 25.855469 57.527344 25.769531 C 57.71875 25.410156 57.910156 25.050781 58.101562 24.691406 C 58.140625 24.621094 58.148438 24.546875 58.125 24.46875 C 58.082031 24.339844 57.972656 24.308594 57.855469 24.289062 C 57.664062 24.25 57.46875 24.210938 57.269531 24.175781 C 57.269531 24.175781 57.554688 23.675781 57.589844 23.617188 C 57.589844 23.617188 57.871094 23.792969 57.980469 23.855469 C 58.074219 23.910156 58.179688 23.90625 58.257812 23.828125 C 58.40625 23.6875 58.789062 23.324219 58.816406 23.277344 C 58.894531 23.167969 58.816406 23.03125 58.699219 23.027344 C 58.625 23.027344 58.570312 23.066406 58.519531 23.109375 C 58.382812 23.222656 58.25 23.335938 58.113281 23.449219 C 58.109375 23.453125 57.707031 23.152344 57.683594 23.132812 C 57.664062 23.113281 57.652344 23.109375 57.625 23.109375 C 57.605469 23.109375 57.582031 23.109375 57.5625 23.105469 C 57.523438 23.101562 57.484375 23.089844 57.445312 23.078125 C 57.390625 23.058594 57.335938 23.023438 57.292969 22.980469 C 57.277344 22.964844 57.257812 22.933594 57.238281 22.921875 C 57.21875 22.914062 57.195312 22.921875 57.171875 22.921875 C 57.132812 22.929688 57.09375 22.9375 57.054688 22.949219 C 56.914062 22.976562 56.140625 23.195312 56.097656 23.210938 C 56.023438 23.238281 55.960938 23.277344 55.90625 23.339844 C 55.75 23.523438 55.589844 23.703125 55.4375 23.882812 C 55.394531 23.933594 55.390625 23.996094 55.421875 24.054688 C 55.460938 24.105469 55.5 24.148438 55.566406 24.144531 Z M 55.566406 24.144531 " fill-opacity="1" fill-rule="nonzero"/></g><g clip-path="url(#bdeb7c3e91)"><path fill="#ffffff" d="M 59.199219 24.507812 L 58.761719 24.753906 L 58.96875 24.90625 C 58.015625 26.070312 56.964844 26.578125 56.242188 26.792969 C 55.449219 27.03125 54.875 26.984375 54.867188 26.984375 L 55.027344 27.128906 L 54.890625 27.292969 C 54.90625 27.292969 54.929688 27.292969 54.953125 27.296875 C 55.167969 27.300781 55.671875 27.285156 56.320312 27.09375 C 57.085938 26.863281 58.203125 26.332031 59.214844 25.09375 L 59.414062 25.242188 L 59.523438 24.753906 L 59.632812 24.261719 Z M 59.199219 24.507812 " fill-opacity="1" fill-rule="nonzero"/></g><g clip-path="url(#d171846d1f)"><path fill="#ffffff" d="M 91.4375 24.644531 C 91.46875 24.863281 91.5 25.082031 91.53125 25.300781 C 91.53125 25.328125 91.535156 25.34375 91.550781 25.359375 C 91.613281 25.453125 91.675781 25.542969 91.738281 25.628906 C 91.875 25.820312 92.015625 26.015625 92.152344 26.210938 C 92.179688 26.25 92.199219 26.285156 92.210938 26.332031 C 92.238281 26.449219 92.136719 26.570312 92.015625 26.5625 C 91.933594 26.558594 91.878906 26.515625 91.832031 26.457031 C 91.585938 26.148438 91.339844 25.839844 91.09375 25.527344 C 91.066406 25.492188 91.042969 25.445312 91.035156 25.398438 C 90.992188 25.203125 90.949219 25.011719 90.90625 24.8125 C 90.929688 24.808594 91.148438 24.785156 91.210938 24.773438 C 91.308594 24.753906 91.382812 24.710938 91.4375 24.644531 Z M 91.4375 24.644531 " fill-opacity="1" fill-rule="nonzero"/></g><g clip-path="url(#298817b6bb)"><path fill="#ffffff" d="M 90.097656 22.1875 C 90 22.222656 89.933594 22.292969 89.894531 22.394531 C 89.855469 22.496094 89.855469 22.601562 89.898438 22.707031 C 89.9375 22.8125 90.007812 22.890625 90.105469 22.941406 C 90.203125 22.988281 90.296875 22.996094 90.394531 22.957031 C 90.492188 22.921875 90.558594 22.851562 90.597656 22.75 C 90.636719 22.648438 90.632812 22.542969 90.59375 22.4375 C 90.550781 22.332031 90.484375 22.253906 90.386719 22.203125 C 90.289062 22.15625 90.191406 22.148438 90.097656 22.1875 Z M 90.097656 22.1875 " fill-opacity="1" fill-rule="nonzero"/></g><g clip-path="url(#399b45b9eb)"><path fill="#ffffff" d="M 92.328125 24.144531 C 92.285156 24.144531 92.25 24.125 92.21875 24.105469 C 92.183594 24.082031 91.746094 23.625 91.695312 23.601562 C 91.640625 23.578125 91.148438 23.476562 91.148438 23.476562 L 91.390625 24.210938 C 91.410156 24.269531 91.417969 24.328125 91.414062 24.390625 C 91.402344 24.519531 91.339844 24.625 91.1875 24.660156 C 91.113281 24.675781 90.550781 24.738281 90.339844 24.761719 C 90.398438 24.890625 90.667969 25.464844 90.738281 25.628906 C 90.792969 25.757812 90.710938 25.894531 90.585938 25.902344 C 90.484375 25.910156 90.410156 25.855469 90.367188 25.769531 C 90.175781 25.410156 89.984375 25.050781 89.792969 24.691406 C 89.753906 24.621094 89.75 24.546875 89.773438 24.46875 C 89.8125 24.339844 89.921875 24.308594 90.039062 24.289062 C 90.234375 24.25 90.429688 24.210938 90.628906 24.175781 C 90.628906 24.175781 90.339844 23.675781 90.304688 23.617188 C 90.304688 23.617188 90.027344 23.792969 89.917969 23.855469 C 89.820312 23.910156 89.71875 23.90625 89.640625 23.828125 C 89.488281 23.6875 89.109375 23.324219 89.078125 23.277344 C 89.003906 23.167969 89.078125 23.03125 89.199219 23.027344 C 89.273438 23.027344 89.324219 23.066406 89.375 23.109375 C 89.511719 23.222656 89.644531 23.335938 89.78125 23.449219 C 89.785156 23.453125 90.191406 23.152344 90.214844 23.132812 C 90.234375 23.113281 90.246094 23.109375 90.273438 23.109375 C 90.292969 23.109375 90.3125 23.109375 90.332031 23.105469 C 90.375 23.101562 90.410156 23.089844 90.449219 23.078125 C 90.507812 23.058594 90.558594 23.023438 90.601562 22.980469 C 90.621094 22.964844 90.636719 22.933594 90.65625 22.921875 C 90.679688 22.914062 90.703125 22.921875 90.722656 22.921875 C 90.765625 22.929688 90.800781 22.9375 90.84375 22.949219 C 90.984375 22.976562 91.753906 23.195312 91.800781 23.210938 C 91.871094 23.238281 91.9375 23.277344 91.992188 23.339844 C 92.144531 23.523438 92.304688 23.703125 92.460938 23.882812 C 92.5 23.933594 92.507812 23.996094 92.472656 24.054688 C 92.433594 24.105469 92.398438 24.148438 92.328125 24.144531 Z M 92.328125 24.144531 " fill-opacity="1" fill-rule="nonzero"/></g><g clip-path="url(#02072de4a3)"><path fill="#ffffff" d="M 88.695312 24.507812 L 89.132812 24.753906 L 88.929688 24.90625 C 89.882812 26.070312 90.929688 26.578125 91.652344 26.792969 C 92.449219 27.03125 93.023438 26.984375 93.03125 26.984375 L 92.871094 27.128906 L 93.007812 27.292969 C 92.988281 27.292969 92.96875 27.292969 92.945312 27.296875 C 92.730469 27.300781 92.222656 27.285156 91.578125 27.09375 C 90.8125 26.863281 89.695312 26.332031 88.683594 25.09375 L 88.484375 25.242188 L 88.375 24.753906 L 88.265625 24.261719 Z M 88.695312 24.507812 " fill-opacity="1" fill-rule="nonzero"/></g></svg>